{
	"asset":{
		"generator":"Khronos glTF Blender I/O v4.3.47",
		"version":"2.0"
	},
	"scene":0,
	"scenes":[
		{
			"name":"Scene",
			"nodes":[
				0
			]
		}
	],
	"nodes":[
		{
			"mesh":0,
			"name":"Curve.004",
			"rotation":[
				0.7071068286895752,
				0,
				0,
				0.7071068286895752
			],
			"scale":[
				-35.102420806884766,
				-35.102420806884766,
				-35.102420806884766
			]
		}
	],
	"materials":[
		{
			"doubleSided":true,
			"name":"Material.001",
			"pbrMetallicRoughness":{
				"baseColorFactor":[
					0.800000011920929,
					0.800000011920929,
					0.800000011920929,
					1
				],
				"roughnessFactor":0
			}
		}
	],
	"meshes":[
		{
			"name":"Curve.004",
			"primitives":[
				{
					"attributes":{
						"POSITION":0,
						"NORMAL":1,
						"TEXCOORD_0":2
					},
					"indices":3,
					"material":0
				}
			]
		}
	],
	"accessors":[
		{
			"bufferView":0,
			"componentType":5126,
			"count":18429,
			"max":[
				0.04993957281112671,
				0.0032999999821186066,
				0.04683689773082733
			],
			"min":[
				-0.049938224256038666,
				-0.0032999999821186066,
				-0.046836644411087036
			],
			"type":"VEC3"
		},
		{
			"bufferView":1,
			"componentType":5126,
			"count":18429,
			"type":"VEC3"
		},
		{
			"bufferView":2,
			"componentType":5126,
			"count":18429,
			"type":"VEC2"
		},
		{
			"bufferView":3,
			"componentType":5123,
			"count":94080,
			"type":"SCALAR"
		}
	],
	"bufferViews":[
		{
			"buffer":0,
			"byteLength":221148,
			"byteOffset":0,
			"target":34962
		},
		{
			"buffer":0,
			"byteLength":221148,
			"byteOffset":221148,
			"target":34962
		},
		{
			"buffer":0,
			"byteLength":147432,
			"byteOffset":442296,
			"target":34962
		},
		{
			"buffer":0,
			"byteLength":188160,
			"byteOffset":589728,
			"target":34963
		}
	],
	"buffers":[
		{
			"byteLength":777888,
			"uri":"logo_model.bin"
		}
	]
}
