{
	"asset":{
		"generator":"Khronos glTF Blender I/O v4.2.70",
		"version":"2.0"
	},
	"scene":0,
	"scenes":[
		{
			"name":"Scene",
			"nodes":[
				0
			]
		}
	],
	"nodes":[
		{
			"mesh":0,
			"name":"SVG Logo-06.svg_1mm.stl",
			"scale":[
				0.10000000149011612,
				0.10000000149011612,
				0.15935024619102478
			]
		}
	],
	"materials":[
		{
			"name":"Material_0",
			"pbrMetallicRoughness":{
				"metallicFactor":0
			}
		}
	],
	"meshes":[
		{
			"name":"Mesh_0",
			"primitives":[
				{
					"attributes":{
						"POSITION":0,
						"NORMAL":1
					},
					"indices":2,
					"material":0
				}
			]
		}
	],
	"accessors":[
		{
			"bufferView":0,
			"componentType":5126,
			"count":19788,
			"max":[
				31.044761657714844,
				31.05221939086914,
				0.5
			],
			"min":[
				-30.799945831298828,
				-30.60107421875,
				-0.5
			],
			"type":"VEC3"
		},
		{
			"bufferView":1,
			"componentType":5126,
			"count":19788,
			"type":"VEC3"
		},
		{
			"bufferView":2,
			"componentType":5123,
			"count":19788,
			"type":"SCALAR"
		}
	],
	"bufferViews":[
		{
			"buffer":0,
			"byteLength":237456,
			"byteOffset":0,
			"target":34962
		},
		{
			"buffer":0,
			"byteLength":237456,
			"byteOffset":237456,
			"target":34962
		},
		{
			"buffer":0,
			"byteLength":39576,
			"byteOffset":474912,
			"target":34963
		}
	],
	"buffers":[
		{
			"byteLength":514488,
			"uri":"olkap_logo.bin"
		}
	]
}
